# xmcd
#
# Track frame offsets:
#	150
#	37481
#	64330
#	95452
#	113838
#	142260
#	164772
#
# Disc length: 2554 seconds
#
# Revision: 0
# Processed by: cddbd v1.5.2PL0 Copyright (c) Steve Scherf et al.
# Submitted via: dBpowerAMP V4.0
#
DISCID=7009f807
DTITLE=THE NRG BAND with NICOLE HART - LIVE! NRG
DYEAR=2006
DGENRE=Blues
TTITLE0=I HEARD
TTITLE1=VOODOO WOMAN
TTITLE2=TREASURE
TTITLE3=EVERY NIGHT OF THE WEEK
TTITLE4=IT HURT SO BAD
TTITLE5=THINK ABOUT LOVE
TTITLE6=HOT'LANTA
EXTD=
EXTT0=
EXTT1=
EXTT2=
EXTT3=
EXTT4=
EXTT5=
EXTT6=
PLAYORDER=
